<svg width="714" height="609" viewBox="0 0 714 609" fill="none" xmlns="http://www.w3.org/2000/svg">
<rect width="544" height="609" fill="url(#paint0_radial_46_2)"/>
<path d="M690.184 322.542C689.593 323.68 688.975 324.799 688.339 325.912C663.923 368.507 607.125 394.96 511.339 380.959C456.952 372.632 433.79 403.177 411.362 434.465C410.978 435.005 410.595 435.545 410.205 436.085C386.718 468.895 363.465 501.796 305.323 490.859C243.685 481.1 205.645 430.984 199.758 377.479C199.686 376.828 199.622 376.171 199.563 375.52C196.256 340.83 206.476 304.91 232.549 277.793C248.298 261.418 270.674 252.719 293.771 252.992C300.725 253.122 307.676 252.606 314.535 251.45C316.049 251.184 317.518 250.891 318.947 250.559C348.372 243.825 361.932 223.806 370.248 199.376C370.443 198.797 370.638 198.218 370.826 197.633C389.921 139.371 381.092 57.5968 484.902 69.6264C577.797 76.4838 645.971 128.064 679.412 187.574C679.743 188.173 680.074 188.771 680.399 189.37C689.59 205.882 696.149 223.731 699.838 242.27C700.047 243.311 700.235 244.352 700.41 245.393C705.14 273.031 702.041 299.894 690.184 322.542Z" fill="#F2F2F2"/>
<path d="M680.399 189.37C673.734 197.302 666.225 204.481 658.004 210.781C625.98 235.374 585.418 248.711 545.403 251.509C524.839 252.957 504.173 251.551 483.993 247.332C463.462 243.025 443.88 235.439 424.915 226.578C406.469 217.957 388.57 208.237 370.248 199.376C370.443 198.797 370.638 198.218 370.826 197.633C390.805 207.261 410.374 217.873 430.587 227.046C449.63 235.693 469.342 242.745 489.957 246.519C510.526 250.258 531.518 251.081 552.316 248.965C592.221 244.944 632.815 230.202 663.494 203.826C669.254 198.875 674.58 193.437 679.412 187.574C679.743 188.173 680.074 188.771 680.399 189.37Z" fill="white"/>
<path d="M541.751 55.612C541.704 55.612 541.658 55.6135 541.611 55.6165C492.369 58.7057 453.796 99.8648 453.796 149.319C453.796 198.774 492.369 239.934 541.611 243.022C541.905 243.042 542.201 243.001 542.478 242.901C542.756 242.801 543.009 242.645 543.224 242.442C543.438 242.243 543.608 242.001 543.724 241.733C543.84 241.464 543.899 241.175 543.898 240.882V57.7565C543.897 57.1872 543.67 56.6417 543.267 56.2396C542.865 55.8376 542.319 55.6118 541.751 55.612L541.751 55.612Z" fill="#CCCCCC"/>
<path d="M617.039 211.894C616.309 211.893 615.609 211.603 615.092 211.087L551.423 147.33C551.166 147.075 550.963 146.771 550.825 146.437C550.687 146.103 550.616 145.745 550.617 145.383V57.7566C550.616 57.3806 550.692 57.0083 550.841 56.6633C550.99 56.3182 551.209 56.0078 551.484 55.7515C551.76 55.4921 552.085 55.2921 552.441 55.1638C552.797 55.0356 553.175 54.9819 553.553 55.006C603.116 58.1153 641.941 99.5428 641.941 149.319C641.942 171.93 633.848 193.791 619.126 210.935C618.878 211.222 618.574 211.456 618.233 211.62C617.892 211.785 617.52 211.877 617.141 211.892C617.107 211.893 617.073 211.894 617.039 211.894Z" fill="#CCCCCC"/>
<path d="M553.377 243.639C552.675 243.638 551.998 243.37 551.485 242.889C551.21 242.632 550.991 242.322 550.841 241.976C550.692 241.631 550.616 241.258 550.617 240.882V161.82C550.617 161.275 550.779 160.743 551.081 160.29C551.383 159.838 551.812 159.485 552.314 159.277C552.816 159.068 553.369 159.014 553.902 159.12C554.435 159.226 554.925 159.488 555.31 159.873L610.869 215.509C611.133 215.774 611.341 216.089 611.479 216.437C611.617 216.784 611.684 217.156 611.674 217.53C611.664 217.904 611.579 218.272 611.423 218.612C611.267 218.951 611.043 219.256 610.766 219.506C594.948 233.767 574.789 242.267 553.548 243.633C553.491 243.637 553.434 243.639 553.377 243.639Z" fill="#005691"/>
<path d="M700.411 245.393C691.496 261.222 678.912 275.184 664.501 286.251C632.477 310.844 591.916 324.181 551.9 326.979C531.336 328.427 510.67 327.021 490.49 322.802C469.959 318.495 450.377 310.909 431.412 302.048C412.103 293.024 393.384 282.79 374.159 273.597C354.954 264.41 335.216 256.577 314.536 251.45C316.05 251.184 317.518 250.891 318.947 250.559C320.299 250.91 321.646 251.275 322.989 251.652C363.426 262.973 399.115 285.282 437.084 302.516C456.127 311.163 475.839 318.215 496.454 321.989C517.023 325.728 538.015 326.551 558.813 324.435C598.718 320.414 639.312 305.672 669.991 279.296C682.134 268.902 692.254 256.349 699.839 242.27C700.047 243.311 700.235 244.352 700.411 245.393Z" fill="white"/>
<path d="M298.949 384.375C338.789 395.526 374.016 417.348 411.362 434.465C410.978 435.005 410.595 435.545 410.205 436.085C409.256 435.649 408.314 435.213 407.372 434.771C388.063 425.747 369.345 415.513 350.12 406.32C330.505 396.938 310.338 388.968 289.177 383.848C259.927 376.793 229.711 374.641 199.758 377.479C199.686 376.828 199.622 376.171 199.563 375.52C232.954 372.364 266.639 375.365 298.949 384.375Z" fill="white"/>
<path d="M459.077 447.15H175.744C175.546 447.15 175.357 447.071 175.218 446.932C175.078 446.792 175 446.602 175 446.405C175 446.207 175.078 446.018 175.218 445.878C175.357 445.739 175.546 445.66 175.744 445.66H459.077C459.274 445.66 459.463 445.739 459.603 445.878C459.742 446.018 459.82 446.207 459.82 446.405C459.82 446.602 459.742 446.792 459.603 446.932C459.463 447.071 459.274 447.15 459.077 447.15Z" fill="#CCCCCC"/>
<path d="M290.355 346.689C300.443 346.689 308.62 338.5 308.62 328.399C308.62 318.297 300.443 310.109 290.355 310.109C280.268 310.109 272.09 318.297 272.09 328.399C272.09 338.5 280.268 346.689 290.355 346.689Z" fill="#A0616A"/>
<path d="M358.697 457.457L359.123 466.577L324.199 472.564L323.57 459.105L358.697 457.457Z" fill="#A0616A"/>
<path d="M367.417 454.717L368.386 475.449L368.015 475.466C365.146 475.656 362.287 474.963 359.822 473.482C357.592 472.059 356.308 470.089 356.207 467.933V467.933L355.615 455.27L367.417 454.717Z" fill="#2F2E41"/>
<path d="M357.72 472.463L366.837 472.463L371.174 437.248L357.719 437.249L357.72 472.463Z" fill="#A0616A"/>
<path d="M355.395 469.482L373.349 469.482H373.35C374.853 469.482 376.34 469.778 377.729 470.354C379.117 470.93 380.378 471.774 381.441 472.838C382.503 473.901 383.346 475.165 383.921 476.555C384.496 477.945 384.792 479.435 384.792 480.94V481.312L355.395 481.313L355.395 469.482Z" fill="#2F2E41"/>
<path d="M271.647 463.933C272.646 463.327 273.5 462.509 274.149 461.537C274.798 460.564 275.227 459.461 275.404 458.305C275.581 457.149 275.503 455.969 275.175 454.846C274.848 453.723 274.278 452.687 273.507 451.808L280.784 379.31L263.453 380.524L261.75 451.405C260.362 452.8 259.534 454.657 259.422 456.622C259.31 458.588 259.922 460.527 261.142 462.071C262.362 463.615 264.105 464.658 266.041 465.001C267.977 465.344 269.972 464.964 271.647 463.933V463.933Z" fill="#A0616A"/>
<path d="M280.699 391.877L262.741 389.686C262.23 389.623 261.738 389.451 261.299 389.182C260.861 388.912 260.485 388.551 260.199 388.122C259.912 387.694 259.721 387.209 259.638 386.701C259.556 386.192 259.583 385.671 259.72 385.174L264.502 367.759C264.835 365.143 266.191 362.766 268.272 361.149C270.353 359.532 272.989 358.808 275.603 359.135C278.216 359.461 280.593 360.813 282.214 362.892C283.834 364.971 284.564 367.609 284.245 370.227L284.713 388.224C284.727 388.739 284.629 389.252 284.427 389.726C284.224 390.2 283.923 390.624 283.542 390.971C283.161 391.318 282.71 391.578 282.219 391.734C281.729 391.891 281.21 391.94 280.699 391.877Z" fill="#005691"/>
<path d="M278.187 474.202C276.011 474.053 273.913 473.331 272.104 472.11C270.296 470.888 268.842 469.211 267.888 467.246C266.935 465.281 266.516 463.099 266.675 460.921C266.833 458.742 267.564 456.644 268.791 454.839L280.522 442.644L323.282 404.293L346.143 385.297C347.476 384.189 349.07 383.438 350.773 383.114C352.476 382.791 354.233 382.906 355.879 383.449C357.526 383.991 359.007 384.943 360.186 386.216C361.364 387.489 362.201 389.041 362.617 390.726L374.56 439.107C374.76 439.912 374.655 440.762 374.264 441.494C373.873 442.225 373.225 442.785 372.445 443.064L359.424 447.758C358.988 447.915 358.525 447.98 358.062 447.948C357.6 447.917 357.149 447.789 356.739 447.574C356.328 447.359 355.967 447.06 355.677 446.698C355.388 446.336 355.177 445.917 355.057 445.469L350.105 426.87L322.546 453.251L331.144 456.421C331.933 456.715 332.583 457.295 332.965 458.045C333.347 458.796 333.434 459.663 333.209 460.475L330.431 470.333C330.239 471.02 329.832 471.628 329.27 472.067C328.708 472.506 328.02 472.753 327.307 472.772L278.187 474.202Z" fill="#2F2E41"/>
<path d="M277.019 446.704L275.888 405.334L268.753 387.189C267.296 383.487 266.665 379.512 266.904 375.54C267.142 371.568 268.245 367.696 270.134 364.196C272.023 360.696 274.654 357.651 277.841 355.275C281.029 352.9 284.696 351.25 288.587 350.443C289.174 350.32 289.76 350.201 290.344 350.086C294.076 349.344 297.922 349.392 301.634 350.228C305.347 351.064 308.843 352.669 311.899 354.94C314.955 357.211 317.502 360.097 319.377 363.413C321.251 366.728 322.412 370.4 322.784 374.192L326.137 405.337L326.124 405.396C320.777 429.209 305.307 442.315 277.436 446.639L277.019 446.704Z" fill="#005691"/>
<path d="M293.893 417.968C294.3 417.905 294.711 417.874 295.123 417.876L315.766 387.273L311.856 379.2L323.252 371.699L331.56 385.317C332.231 386.417 332.528 387.705 332.405 388.989C332.283 390.272 331.748 391.481 330.881 392.434L302.628 423.497C303.072 425.021 303.042 426.644 302.542 428.151C302.042 429.657 301.096 430.975 299.829 431.93C298.563 432.885 297.036 433.431 295.452 433.496C293.868 433.561 292.302 433.141 290.963 432.293C289.623 431.444 288.572 430.208 287.951 428.747C287.33 427.287 287.168 425.671 287.486 424.116C287.805 422.561 288.588 421.14 289.733 420.042C290.877 418.943 292.328 418.22 293.893 417.968Z" fill="#A0616A"/>
<path d="M313.959 386.704C313.496 386.574 313.066 386.346 312.699 386.035C312.332 385.724 312.036 385.338 311.831 384.902L304.692 369.678C303.331 367.626 302.838 365.117 303.321 362.701C303.803 360.286 305.223 358.161 307.268 356.791C309.313 355.422 311.817 354.921 314.231 355.398C316.645 355.874 318.771 357.289 320.144 359.333L331.424 371.868C331.746 372.226 331.988 372.649 332.131 373.109C332.275 373.568 332.319 374.053 332.258 374.531C332.198 375.009 332.036 375.468 331.783 375.877C331.529 376.286 331.191 376.636 330.79 376.903L316.712 386.268C316.311 386.534 315.858 386.711 315.383 386.787C314.908 386.862 314.422 386.834 313.959 386.704Z" fill="#005691"/>
<path d="M532.612 342.586H472.323C471.454 342.586 470.621 342.24 470.007 341.625C469.392 341.01 469.047 340.175 469.047 339.305C469.047 338.435 469.392 337.6 470.007 336.985C470.621 336.37 471.454 336.024 472.323 336.024H532.612C533.481 336.024 534.314 336.37 534.929 336.985C535.543 337.6 535.888 338.435 535.888 339.305C535.888 340.175 535.543 341.01 534.929 341.625C534.314 342.24 533.481 342.586 532.612 342.586Z" fill="#CCCCCC"/>
<path d="M454.303 345.867C452.942 345.867 451.611 345.463 450.48 344.706C449.348 343.949 448.466 342.873 447.946 341.614C447.425 340.355 447.289 338.969 447.554 337.633C447.82 336.296 448.475 335.068 449.437 334.105C450.399 333.141 451.625 332.485 452.96 332.219C454.295 331.953 455.678 332.09 456.936 332.611C458.193 333.133 459.268 334.016 460.024 335.149C460.78 336.282 461.183 337.614 461.183 338.977C461.181 340.804 460.456 342.555 459.166 343.847C457.876 345.138 456.127 345.865 454.303 345.867Z" fill="#3F3D56"/>
<path d="M532.612 362.272H472.323C471.454 362.272 470.621 361.927 470.007 361.311C469.392 360.696 469.047 359.861 469.047 358.991C469.047 358.121 469.392 357.287 470.007 356.671C470.621 356.056 471.454 355.71 472.323 355.71H532.612C533.481 355.71 534.314 356.056 534.929 356.671C535.543 357.287 535.888 358.121 535.888 358.991C535.888 359.861 535.543 360.696 534.929 361.311C534.314 361.927 533.481 362.272 532.612 362.272Z" fill="#CCCCCC"/>
<path d="M454.303 365.553C452.942 365.553 451.611 365.149 450.48 364.392C449.348 363.635 448.466 362.559 447.946 361.3C447.425 360.041 447.289 358.656 447.554 357.319C447.82 355.982 448.475 354.755 449.437 353.791C450.399 352.827 451.626 352.171 452.96 351.905C454.295 351.64 455.678 351.776 456.936 352.297C458.193 352.819 459.268 353.702 460.024 354.835C460.78 355.968 461.183 357.3 461.183 358.663C461.181 360.49 460.456 362.241 459.166 363.533C457.876 364.825 456.127 365.551 454.303 365.553Z" fill="#3F3D56"/>
<path d="M532.612 381.959H472.323C471.454 381.959 470.621 381.613 470.007 380.998C469.392 380.382 469.047 379.548 469.047 378.678C469.047 377.807 469.392 376.973 470.007 376.357C470.621 375.742 471.454 375.397 472.323 375.397H532.612C533.481 375.397 534.314 375.742 534.929 376.357C535.543 376.973 535.888 377.807 535.888 378.678C535.888 379.548 535.543 380.382 534.929 380.998C534.314 381.613 533.481 381.959 532.612 381.959Z" fill="#CCCCCC"/>
<path d="M454.303 385.24C452.942 385.24 451.611 384.836 450.48 384.078C449.348 383.321 448.466 382.245 447.946 380.986C447.425 379.727 447.289 378.342 447.554 377.005C447.82 375.669 448.475 374.441 449.437 373.477C450.399 372.514 451.625 371.858 452.96 371.592C454.295 371.326 455.678 371.462 456.936 371.984C458.193 372.505 459.268 373.388 460.024 374.521C460.78 375.655 461.183 376.987 461.183 378.349C461.181 380.176 460.456 381.928 459.166 383.219C457.876 384.511 456.127 385.238 454.303 385.24Z" fill="#3F3D56"/>
<path d="M549.933 358.903H574.835C575.009 358.903 575.176 358.834 575.298 358.711C575.421 358.588 575.49 358.421 575.49 358.247V204.09C575.49 203.916 575.421 203.749 575.298 203.626C575.176 203.502 575.009 203.433 574.835 203.433C574.661 203.433 574.495 203.502 574.372 203.626C574.249 203.749 574.18 203.916 574.18 204.09V357.59H549.933C549.847 357.59 549.762 357.607 549.682 357.64C549.602 357.673 549.53 357.721 549.469 357.782C549.408 357.843 549.359 357.915 549.326 357.995C549.293 358.075 549.276 358.16 549.276 358.247C549.276 358.333 549.293 358.418 549.326 358.498C549.359 358.578 549.408 358.65 549.469 358.711C549.53 358.772 549.602 358.821 549.682 358.853C549.762 358.886 549.847 358.903 549.933 358.903Z" fill="#3F3D56"/>
<path d="M656.638 103.334C654.973 103.468 653.305 103.105 651.846 102.291C650.387 101.476 649.202 100.246 648.441 98.7573C647.68 97.2682 647.377 95.5866 647.57 93.925C647.763 92.2634 648.444 90.6966 649.527 89.4226C650.609 88.1486 652.045 87.2246 653.652 86.7676C655.259 86.3105 656.965 86.3409 658.555 86.8549C660.144 87.3689 661.546 88.3434 662.583 89.6552C663.619 90.9669 664.244 92.5571 664.378 94.2245C664.558 96.4604 663.844 98.6763 662.392 100.385C660.94 102.093 658.87 103.154 656.638 103.334ZM656.533 102.037C657.942 101.923 659.286 101.394 660.394 100.516C661.503 99.6373 662.326 98.4496 662.76 97.1026C663.195 95.7556 663.221 94.3099 662.834 92.9483C662.448 91.5867 661.667 90.3704 660.591 89.4531C659.514 88.5358 658.19 87.9588 656.786 87.7951C655.382 87.6313 653.961 87.8881 652.703 88.533C651.445 89.1779 650.406 90.182 649.717 91.4183C649.029 92.6545 648.722 94.0674 648.836 95.4783C648.911 96.4151 649.17 97.3278 649.598 98.1644C650.025 99.001 650.613 99.7451 651.328 100.354C652.043 100.963 652.87 101.425 653.763 101.714C654.657 102.003 655.598 102.113 656.533 102.037V102.037Z" fill="#CCCCCC"/>
<path d="M685.721 81.6321C688.592 81.6321 690.919 79.3018 690.919 76.4273C690.919 73.5527 688.592 71.2225 685.721 71.2225C682.851 71.2225 680.523 73.5527 680.523 76.4273C680.523 79.3018 682.851 81.6321 685.721 81.6321Z" fill="#CCCCCC"/>
<path d="M711.269 62.8091C712.777 62.8091 714 61.5851 714 60.0751C714 58.5651 712.777 57.3411 711.269 57.3411C709.761 57.3411 708.539 58.5651 708.539 60.0751C708.539 61.5851 709.761 62.8091 711.269 62.8091Z" fill="#CCCCCC"/>
<path d="M616.951 269.811C616.03 271.206 614.717 272.297 613.177 272.945C611.637 273.593 609.939 273.77 608.299 273.452C606.659 273.134 605.15 272.336 603.963 271.159C602.775 269.982 601.963 268.48 601.629 266.841C601.295 265.202 601.453 263.5 602.084 261.952C602.716 260.403 603.791 259.076 605.176 258.14C606.56 257.203 608.19 256.699 609.861 256.69C611.531 256.682 613.167 257.169 614.56 258.091C616.427 259.33 617.728 261.259 618.176 263.456C618.624 265.653 618.183 267.938 616.951 269.811ZM603.942 261.203C603.162 262.384 602.75 263.769 602.758 265.185C602.765 266.6 603.191 267.982 603.982 269.155C604.774 270.327 605.895 271.239 607.203 271.774C608.512 272.309 609.95 272.443 611.335 272.16C612.719 271.876 613.989 271.188 614.984 270.182C615.978 269.176 616.652 267.898 616.921 266.508C617.189 265.118 617.04 263.68 616.493 262.375C615.945 261.07 615.023 259.957 613.844 259.177C612.262 258.133 610.331 257.76 608.475 258.139C606.618 258.519 604.988 259.621 603.942 261.203Z" fill="#CCCCCC"/>
<path d="M627.07 300.916C629.94 300.916 632.267 298.586 632.267 295.711C632.267 292.837 629.94 290.507 627.07 290.507C624.199 290.507 621.872 292.837 621.872 295.711C621.872 298.586 624.199 300.916 627.07 300.916Z" fill="#CCCCCC"/>
<path d="M641.568 325.112C643.076 325.112 644.298 323.888 644.298 322.378C644.298 320.868 643.076 319.644 641.568 319.644C640.06 319.644 638.837 320.868 638.837 322.378C638.837 323.888 640.06 325.112 641.568 325.112Z" fill="#CCCCCC"/>
<path d="M407.227 127.76C406.484 126.262 406.201 124.577 406.414 122.918C406.627 121.259 407.326 119.7 408.424 118.439C409.521 117.178 410.968 116.271 412.58 115.833C414.192 115.395 415.898 115.446 417.482 115.979C419.065 116.512 420.455 117.503 421.476 118.827C422.497 120.151 423.103 121.748 423.217 123.417C423.332 125.086 422.949 126.751 422.118 128.203C421.288 129.654 420.046 130.826 418.55 131.57C416.543 132.566 414.224 132.724 412.102 132.01C409.979 131.295 408.226 129.767 407.227 127.76ZM421.191 120.811C420.562 119.544 419.572 118.491 418.345 117.787C417.119 117.083 415.712 116.759 414.302 116.856C412.892 116.953 411.542 117.467 410.423 118.332C409.304 119.197 408.467 120.375 408.016 121.716C407.566 123.058 407.523 124.503 407.893 125.869C408.263 127.235 409.03 128.461 410.095 129.391C411.161 130.321 412.478 130.914 413.88 131.094C415.282 131.275 416.706 131.035 417.971 130.405C419.667 129.559 420.959 128.073 421.562 126.275C422.166 124.476 422.032 122.511 421.191 120.811Z" fill="#CCCCCC"/>
<path d="M379.777 128.732C382.647 128.732 384.974 126.401 384.974 123.527C384.974 120.652 382.647 118.322 379.777 118.322C376.906 118.322 374.579 120.652 374.579 123.527C374.579 126.401 376.906 128.732 379.777 128.732Z" fill="#CCCCCC"/>
<path d="M349.467 125.437C350.975 125.437 352.197 124.213 352.197 122.703C352.197 121.193 350.975 119.969 349.467 119.969C347.959 119.969 346.737 121.193 346.737 122.703C346.737 124.213 347.959 125.437 349.467 125.437Z" fill="#CCCCCC"/>
<path d="M309.657 329.999L308.896 328.056C306.795 322.695 301.773 318.575 296.398 317.802C293.716 317.451 290.99 317.869 288.536 319.008C286.083 320.148 284.002 321.961 282.537 324.238C281.294 326.397 280.313 328.698 279.614 331.091C279.374 331.803 279.133 332.318 278.669 332.474C278.146 332.663 277.627 332.34 276.765 331.806C276.573 331.686 276.351 331.625 276.125 331.627C275.9 331.629 275.679 331.696 275.49 331.819C275.3 331.943 275.149 332.117 275.055 332.323C274.961 332.529 274.928 332.757 274.958 332.981L275.861 339.437L275.105 338.764C270.188 334.381 269.178 326.133 272.73 320.9L264.646 322.563L265.01 321.867C268.367 315.378 274.154 310.484 281.106 308.255L273.362 306.547L274.145 306.064C281.079 301.786 290.228 301.907 297.45 306.364C301.078 308.691 304.082 311.871 306.202 315.626C308.322 319.382 309.493 323.599 309.614 327.912L309.657 329.999Z" fill="#2F2E41"/>
<path d="M519.402 416.035C520.939 416.035 522.306 416.276 523.504 416.758C524.702 417.24 525.646 417.943 526.336 418.867C527.039 419.792 527.391 420.918 527.391 422.246C527.391 424.082 526.844 425.625 525.75 426.875C524.669 428.125 523.315 429.219 521.688 430.156L527.234 435.566C527.781 434.668 528.243 433.717 528.621 432.715C529.012 431.712 529.35 430.703 529.637 429.688H535.848C535.444 431.185 534.852 432.786 534.07 434.492C533.302 436.185 532.319 437.78 531.121 439.277L537 445H529.637L527.391 442.793C526.622 443.327 525.796 443.789 524.91 444.18C524.038 444.57 523.1 444.87 522.098 445.078C521.108 445.286 520.06 445.391 518.953 445.391C516.792 445.391 514.936 445.052 513.387 444.375C511.837 443.698 510.652 442.754 509.832 441.543C509.012 440.319 508.602 438.9 508.602 437.285C508.602 435.931 508.81 434.772 509.227 433.809C509.643 432.832 510.242 431.979 511.023 431.25C511.805 430.508 512.742 429.824 513.836 429.199C513.146 428.392 512.592 427.637 512.176 426.934C511.772 426.23 511.479 425.534 511.297 424.844C511.128 424.141 511.043 423.405 511.043 422.637C511.043 421.283 511.395 420.117 512.098 419.141C512.814 418.151 513.797 417.389 515.047 416.855C516.31 416.309 517.762 416.035 519.402 416.035ZM517.312 432.754C516.818 433.132 516.382 433.522 516.004 433.926C515.639 434.329 515.359 434.759 515.164 435.215C514.969 435.671 514.871 436.172 514.871 436.719C514.871 437.865 515.301 438.763 516.16 439.414C517.02 440.065 518.087 440.391 519.363 440.391C520.223 440.391 521.023 440.286 521.766 440.078C522.508 439.87 523.185 439.577 523.797 439.199L517.312 432.754ZM519.363 420.645C518.699 420.645 518.061 420.814 517.449 421.152C516.85 421.491 516.551 422.122 516.551 423.047C516.551 423.698 516.72 424.336 517.059 424.961C517.397 425.573 517.846 426.198 518.406 426.836C519.526 426.224 520.385 425.612 520.984 425C521.583 424.375 521.883 423.665 521.883 422.871C521.883 422.077 521.609 421.51 521.062 421.172C520.529 420.82 519.962 420.645 519.363 420.645ZM559.305 416.445C561.896 416.445 564.031 416.758 565.711 417.383C567.404 418.008 568.66 418.952 569.48 420.215C570.301 421.478 570.711 423.073 570.711 425C570.711 426.302 570.464 427.441 569.969 428.418C569.474 429.395 568.823 430.221 568.016 430.898C567.208 431.576 566.336 432.129 565.398 432.559L573.797 445H567.078L560.262 434.043H557.039V445H550.984V416.445H559.305ZM558.875 421.406H557.039V429.121H558.992C560.997 429.121 562.43 428.789 563.289 428.125C564.161 427.448 564.598 426.458 564.598 425.156C564.598 423.802 564.129 422.839 563.191 422.266C562.267 421.693 560.828 421.406 558.875 421.406ZM593.836 445H577.391V416.445H593.836V421.406H583.445V427.676H593.113V432.637H583.445V440H593.836V445ZM622.215 416.445L612.508 445H605.906L596.219 416.445H602.332L607.703 433.438C607.794 433.724 607.944 434.264 608.152 435.059C608.361 435.84 608.569 436.673 608.777 437.559C608.999 438.431 609.148 439.154 609.227 439.727C609.305 439.154 609.441 438.431 609.637 437.559C609.845 436.686 610.047 435.859 610.242 435.078C610.451 434.284 610.6 433.737 610.691 433.438L616.102 416.445H622.215ZM625.828 445V416.445H631.883V445H625.828ZM655.926 437.07C655.926 438.763 655.516 440.234 654.695 441.484C653.875 442.734 652.677 443.698 651.102 444.375C649.539 445.052 647.638 445.391 645.398 445.391C644.409 445.391 643.439 445.326 642.488 445.195C641.551 445.065 640.646 444.876 639.773 444.629C638.914 444.368 638.094 444.049 637.312 443.672V438.047C638.667 438.646 640.073 439.186 641.531 439.668C642.99 440.15 644.435 440.391 645.867 440.391C646.857 440.391 647.651 440.26 648.25 440C648.862 439.74 649.305 439.382 649.578 438.926C649.852 438.47 649.988 437.949 649.988 437.363C649.988 436.647 649.747 436.035 649.266 435.527C648.784 435.02 648.12 434.544 647.273 434.102C646.44 433.659 645.496 433.184 644.441 432.676C643.777 432.363 643.055 431.986 642.273 431.543C641.492 431.087 640.75 430.534 640.047 429.883C639.344 429.232 638.764 428.444 638.309 427.52C637.866 426.582 637.645 425.462 637.645 424.16C637.645 422.454 638.035 420.996 638.816 419.785C639.598 418.574 640.711 417.65 642.156 417.012C643.615 416.361 645.333 416.035 647.312 416.035C648.797 416.035 650.21 416.211 651.551 416.562C652.905 416.901 654.318 417.396 655.789 418.047L653.836 422.754C652.521 422.22 651.342 421.81 650.301 421.523C649.259 421.224 648.198 421.074 647.117 421.074C646.362 421.074 645.717 421.198 645.184 421.445C644.65 421.68 644.246 422.018 643.973 422.461C643.699 422.891 643.562 423.392 643.562 423.965C643.562 424.642 643.758 425.215 644.148 425.684C644.552 426.139 645.151 426.582 645.945 427.012C646.753 427.441 647.755 427.943 648.953 428.516C650.411 429.206 651.655 429.928 652.684 430.684C653.725 431.426 654.526 432.305 655.086 433.32C655.646 434.323 655.926 435.573 655.926 437.07ZM677.547 445H661.102V416.445H677.547V421.406H667.156V427.676H676.824V432.637H667.156V440H677.547V445Z" fill="#005691"/>
<path d="M248.609 184H242.555V160.484H234.801V155.445H256.363V160.484H248.609V184ZM277.203 184H260.758V155.445H277.203V160.406H266.812V166.676H276.48V171.637H266.812V179H277.203V184ZM300.035 176.07C300.035 177.763 299.625 179.234 298.805 180.484C297.984 181.734 296.786 182.698 295.211 183.375C293.648 184.052 291.747 184.391 289.508 184.391C288.518 184.391 287.548 184.326 286.598 184.195C285.66 184.065 284.755 183.876 283.883 183.629C283.023 183.368 282.203 183.049 281.422 182.672V177.047C282.776 177.646 284.182 178.186 285.641 178.668C287.099 179.15 288.544 179.391 289.977 179.391C290.966 179.391 291.76 179.26 292.359 179C292.971 178.74 293.414 178.382 293.688 177.926C293.961 177.47 294.098 176.949 294.098 176.363C294.098 175.647 293.857 175.035 293.375 174.527C292.893 174.02 292.229 173.544 291.383 173.102C290.549 172.659 289.605 172.184 288.551 171.676C287.887 171.363 287.164 170.986 286.383 170.543C285.602 170.087 284.859 169.534 284.156 168.883C283.453 168.232 282.874 167.444 282.418 166.52C281.975 165.582 281.754 164.462 281.754 163.16C281.754 161.454 282.145 159.996 282.926 158.785C283.707 157.574 284.82 156.65 286.266 156.012C287.724 155.361 289.443 155.035 291.422 155.035C292.906 155.035 294.319 155.211 295.66 155.562C297.014 155.901 298.427 156.396 299.898 157.047L297.945 161.754C296.63 161.22 295.452 160.81 294.41 160.523C293.368 160.224 292.307 160.074 291.227 160.074C290.471 160.074 289.827 160.198 289.293 160.445C288.759 160.68 288.355 161.018 288.082 161.461C287.809 161.891 287.672 162.392 287.672 162.965C287.672 163.642 287.867 164.215 288.258 164.684C288.661 165.139 289.26 165.582 290.055 166.012C290.862 166.441 291.865 166.943 293.062 167.516C294.521 168.206 295.764 168.928 296.793 169.684C297.835 170.426 298.635 171.305 299.195 172.32C299.755 173.323 300.035 174.573 300.035 176.07ZM316.227 184H310.172V160.484H302.418V155.445H323.98V160.484H316.227V184ZM333.453 179.352L333.746 179.801C333.512 180.738 333.206 181.747 332.828 182.828C332.464 183.909 332.06 184.99 331.617 186.07C331.188 187.151 330.751 188.18 330.309 189.156H326.012C326.272 188.102 326.526 186.995 326.773 185.836C327.021 184.677 327.249 183.538 327.457 182.418C327.678 181.298 327.854 180.276 327.984 179.352H333.453ZM248.609 238H242.555V214.484H234.801V209.445H256.363V214.484H248.609V238ZM269.078 209.445C271.669 209.445 273.805 209.758 275.484 210.383C277.177 211.008 278.434 211.952 279.254 213.215C280.074 214.478 280.484 216.073 280.484 218C280.484 219.302 280.237 220.441 279.742 221.418C279.247 222.395 278.596 223.221 277.789 223.898C276.982 224.576 276.109 225.129 275.172 225.559L283.57 238H276.852L270.035 227.043H266.812V238H260.758V209.445H269.078ZM268.648 214.406H266.812V222.121H268.766C270.771 222.121 272.203 221.789 273.062 221.125C273.935 220.448 274.371 219.458 274.371 218.156C274.371 216.802 273.902 215.839 272.965 215.266C272.04 214.693 270.602 214.406 268.648 214.406ZM304.645 238L302.574 231.203H292.164L290.094 238H283.57L293.648 209.328H301.051L311.168 238H304.645ZM301.129 226.125L299.059 219.484C298.928 219.042 298.753 218.475 298.531 217.785C298.323 217.082 298.108 216.372 297.887 215.656C297.678 214.927 297.509 214.296 297.379 213.762C297.249 214.296 297.066 214.96 296.832 215.754C296.611 216.535 296.396 217.277 296.188 217.98C295.979 218.684 295.829 219.185 295.738 219.484L293.688 226.125H301.129ZM314.781 238V209.445H320.836V238H314.781ZM353.355 238H345.66L333.238 216.398H333.062C333.115 217.297 333.16 218.202 333.199 219.113C333.238 220.025 333.277 220.936 333.316 221.848C333.355 222.746 333.395 223.651 333.434 224.562V238H328.023V209.445H335.66L348.062 230.832H348.199C348.173 229.947 348.141 229.068 348.102 228.195C348.062 227.323 348.023 226.451 347.984 225.578C347.958 224.706 347.932 223.833 347.906 222.961V209.445H353.355V238Z" fill="#005691"/>
<defs>
<radialGradient id="paint0_radial_46_2" cx="0" cy="0" r="1" gradientUnits="userSpaceOnUse" gradientTransform="translate(272 304.5) rotate(90) scale(304.5 272)">
<stop stop-color="#98DED9"/>
<stop offset="0.9999" stop-color="#C8E9FF" stop-opacity="0.01"/>
<stop offset="1" stop-color="#005691" stop-opacity="0"/>
</radialGradient>
</defs>
</svg>
